%
M48
M72
T01C0.0315
T02C0.0320
T03C0.0400
T04C0.0472
T05C0.1181
T06C0.1300
%
T01
X10143Y14876
X10938Y16751
X12768Y14876
X15143Y14251
X16474Y18501
X15214Y22057
X14893Y25126
X17599Y25001
X20143Y21501
X21893Y21501
X21643Y11501
T02
X21018Y10376
X21835Y9129
X18077Y10497
X16018Y10251
X13893Y9876
X13893Y10876
X13893Y11876
X13893Y12876
X16018Y14251
X18143Y13251
X19143Y13251
X20018Y14376
X21018Y14376
X21018Y16751
X20018Y18376
X20018Y20376
X19018Y20376
X21018Y20751
X16268Y19876
X14518Y19876
X13268Y19626
X11768Y23001
X10768Y23001
X13268Y23626
X14518Y23876
X16268Y23876
X10893Y12876
X10893Y11876
X10893Y10876
X10893Y9876
X11540Y8229
X12247Y7522
T03
X8893Y6876
X13018Y6563
X8893Y15876
X19018Y21501
X19018Y22501
X19018Y23501
X22518Y19501
X22518Y18501
X22518Y17501
X22518Y16501
X22518Y15501
X22518Y14501
X22518Y13501
X22518Y12501
X22518Y11501
X22518Y10501
X22518Y9501
X23518Y9501
X23518Y10501
X23518Y11501
X23518Y12501
X23518Y13501
X23518Y14501
X23518Y15501
X23518Y16501
X23518Y17501
X23518Y18501
X23518Y19501
X23018Y21001
X23018Y23001
X22018Y6563
T04
X18955Y16751
X22358Y25697
X9581Y25001
X8456Y18501
T05
X8518Y20938
X20018Y7501
X23893Y6313
X10518Y5938
X23893Y24813
T06
X13118Y22501
M30
