G75*
G70*
%OFA0B0*%
%FSLAX24Y24*%
%IPPOS*%
%LPD*%
%AMOC8*
5,1,8,0,0,1.08239X$1,22.5*
%
%ADD10R,0.0946X0.0316*%
%ADD11R,0.0631X0.0789*%
%ADD12OC8,0.0912*%
%ADD13R,0.0710X0.0592*%
%ADD14R,0.0592X0.0710*%
%ADD15OC8,0.0992*%
%ADD16C,0.0182*%
%ADD17C,0.0912*%
%ADD18C,0.1064*%
%ADD19C,0.0907*%
%ADD20C,0.0992*%
%ADD21C,0.1380*%
%ADD22C,0.1080*%
%ADD23OC8,0.1080*%
%ADD24R,0.0540X0.0710*%
%ADD25R,0.0060X0.0720*%
%ADD26R,0.0710X0.0540*%
%ADD27R,0.0720X0.0060*%
%ADD28R,0.0671X0.0592*%
%ADD29R,0.2521X0.2206*%
%ADD30R,0.0710X0.0474*%
%ADD31R,0.0592X0.0671*%
%ADD32R,0.0316X0.0946*%
%ADD33R,0.1025X0.1025*%
%ADD34R,0.0867X0.0671*%
%ADD35R,0.0789X0.0710*%
%ADD36C,0.1320*%
%ADD37OC8,0.1320*%
%ADD38C,0.0840*%
%ADD39C,0.2049*%
D10*
X012870Y009876D03*
X012870Y010376D03*
X012870Y010876D03*
X012870Y011376D03*
X014917Y011376D03*
X014917Y010876D03*
X014917Y010376D03*
X014917Y009876D03*
D11*
X015724Y012001D03*
X016188Y013126D03*
X014849Y013126D03*
X017063Y012001D03*
X018724Y015751D03*
X020063Y015751D03*
D12*
X020018Y014376D03*
X019143Y013251D03*
X018143Y013251D03*
X016018Y014251D03*
X016018Y010251D03*
X021018Y010376D03*
X021018Y014376D03*
X021018Y016751D03*
X020018Y018376D03*
X020018Y020376D03*
X019018Y020376D03*
X021018Y020751D03*
X016268Y019876D03*
X014518Y019876D03*
X013268Y019626D03*
X011768Y023001D03*
X010768Y023001D03*
X013268Y023626D03*
X014518Y023876D03*
X016268Y023876D03*
D13*
X016268Y021500D03*
X016268Y020752D03*
X017268Y013625D03*
X017268Y012877D03*
X017018Y011000D03*
X017018Y010252D03*
D14*
X017894Y011501D03*
X018642Y011501D03*
X019394Y010376D03*
X019767Y009501D03*
X019019Y009501D03*
X020142Y010376D03*
X017517Y014376D03*
X016769Y014376D03*
X012892Y012876D03*
X012144Y012876D03*
X009642Y008376D03*
X008894Y008376D03*
X009894Y018626D03*
X009894Y019376D03*
X010642Y019376D03*
X010642Y018626D03*
D15*
X022518Y018501D03*
X022518Y017501D03*
X022518Y016501D03*
X022518Y015501D03*
X022518Y014501D03*
X022518Y013501D03*
X022518Y012501D03*
X022518Y011501D03*
X022518Y010501D03*
X022518Y009501D03*
X023518Y009501D03*
X023518Y010501D03*
X023518Y011501D03*
X023518Y012501D03*
X023518Y013501D03*
X023518Y014501D03*
X023518Y015501D03*
X023518Y016501D03*
X023518Y017501D03*
X023518Y018501D03*
X023518Y019501D03*
X022518Y019501D03*
D16*
X018277Y010322D02*
X018368Y010231D01*
X018094Y010103D01*
X017811Y010206D01*
X017683Y010480D01*
X017786Y010763D01*
X018060Y010891D01*
X018343Y010788D01*
X018471Y010514D01*
X018368Y010231D01*
X018259Y010331D01*
X018087Y010251D01*
X017911Y010315D01*
X017831Y010487D01*
X017895Y010663D01*
X018067Y010743D01*
X018243Y010679D01*
X018323Y010507D01*
X018259Y010331D01*
X018149Y010432D01*
X018080Y010399D01*
X018012Y010425D01*
X017979Y010494D01*
X018005Y010562D01*
X018074Y010595D01*
X018142Y010569D01*
X018175Y010500D01*
X018149Y010432D01*
X022035Y008954D02*
X022126Y008863D01*
X021852Y008735D01*
X021569Y008838D01*
X021441Y009112D01*
X021544Y009395D01*
X021818Y009523D01*
X022101Y009420D01*
X022229Y009146D01*
X022126Y008863D01*
X022017Y008963D01*
X021845Y008883D01*
X021669Y008947D01*
X021589Y009119D01*
X021653Y009295D01*
X021825Y009375D01*
X022001Y009311D01*
X022081Y009139D01*
X022017Y008963D01*
X021907Y009064D01*
X021838Y009031D01*
X021770Y009057D01*
X021737Y009126D01*
X021763Y009194D01*
X021832Y009227D01*
X021900Y009201D01*
X021933Y009132D01*
X021907Y009064D01*
X012307Y007249D02*
X012398Y007158D01*
X012096Y007158D01*
X011883Y007371D01*
X011883Y007673D01*
X012096Y007886D01*
X012398Y007886D01*
X012611Y007673D01*
X012611Y007371D01*
X012398Y007158D01*
X012341Y007295D01*
X012153Y007295D01*
X012020Y007428D01*
X012020Y007616D01*
X012153Y007749D01*
X012341Y007749D01*
X012474Y007616D01*
X012474Y007428D01*
X012341Y007295D01*
X012285Y007432D01*
X012209Y007432D01*
X012157Y007484D01*
X012157Y007560D01*
X012209Y007612D01*
X012285Y007612D01*
X012337Y007560D01*
X012337Y007484D01*
X012285Y007432D01*
D17*
X011540Y008229D03*
X010893Y009876D03*
X010893Y010876D03*
X010893Y011876D03*
X010893Y012876D03*
X013893Y012876D03*
X013893Y011876D03*
X013893Y010876D03*
X013893Y009876D03*
D18*
X018955Y016751D03*
X022358Y025697D03*
X009581Y025001D03*
X008456Y018501D03*
D19*
X010938Y016751D03*
X015214Y022057D03*
X017599Y025001D03*
X016474Y018501D03*
D20*
X018563Y021501D02*
X019474Y021501D01*
X019474Y022501D02*
X018563Y022501D01*
X018563Y023501D02*
X019474Y023501D01*
D21*
X013118Y022501D03*
D22*
X023018Y023001D03*
D23*
X023018Y021001D03*
D24*
X021443Y012501D03*
X020843Y012501D03*
X020818Y011501D03*
X020218Y011501D03*
X011693Y015001D03*
X011093Y015001D03*
D25*
X011393Y015001D03*
X020518Y011501D03*
X021143Y012501D03*
D26*
X021018Y015201D03*
X021018Y015801D03*
D27*
X021018Y015501D03*
D28*
X018768Y014875D03*
X018768Y014127D03*
D29*
X015628Y016626D03*
D30*
X012754Y017523D03*
X012754Y015728D03*
D31*
X011767Y015751D03*
X011019Y015751D03*
X018269Y012376D03*
X019017Y012376D03*
X011767Y023876D03*
X011019Y023876D03*
D32*
X011143Y020649D03*
X011643Y020649D03*
X012143Y020649D03*
X012643Y020649D03*
X012643Y018602D03*
X012143Y018602D03*
X011643Y018602D03*
X011143Y018602D03*
D33*
X010652Y025001D03*
X012385Y025001D03*
D34*
X024018Y022591D03*
X024018Y021410D03*
D35*
X017393Y021449D03*
X017393Y022552D03*
D36*
X008893Y015876D03*
X013018Y006563D03*
D37*
X008893Y006876D03*
X022018Y006563D03*
D38*
X021643Y011501D03*
X015143Y014251D03*
X012768Y014876D03*
X010143Y014876D03*
X014893Y025126D03*
X020143Y021501D03*
X021893Y021501D03*
D39*
X023893Y024813D03*
X008518Y020938D03*
X020018Y007501D03*
X023893Y006313D03*
X010518Y005938D03*
M02*
