G75*
G70*
%OFA0B0*%
%FSLAX24Y24*%
%IPPOS*%
%LPD*%
%AMOC8*
5,1,8,0,0,1.08239X$1,22.5*
%
%ADD10R,0.0866X0.0236*%
%ADD11R,0.0551X0.0709*%
%ADD12OC8,0.0832*%
%ADD13R,0.0630X0.0512*%
%ADD14R,0.0512X0.0630*%
%ADD15OC8,0.0912*%
%ADD16C,0.0166*%
%ADD17C,0.0832*%
%ADD18C,0.0984*%
%ADD19C,0.0827*%
%ADD20C,0.0912*%
%ADD21C,0.1000*%
%ADD22OC8,0.1000*%
%ADD23R,0.0460X0.0630*%
%ADD24R,0.0630X0.0460*%
%ADD25R,0.0591X0.0512*%
%ADD26R,0.2441X0.2126*%
%ADD27R,0.0630X0.0394*%
%ADD28R,0.0512X0.0591*%
%ADD29R,0.0236X0.0866*%
%ADD30R,0.0945X0.0945*%
%ADD31R,0.0787X0.0591*%
%ADD32R,0.0709X0.0630*%
%ADD33C,0.1240*%
%ADD34OC8,0.1240*%
%ADD35C,0.0160*%
%ADD36C,0.0240*%
%ADD37C,0.0320*%
%ADD38C,0.0760*%
%ADD39C,0.0400*%
%ADD40C,0.1969*%
%ADD41C,0.0700*%
D10*
X012870Y009876D03*
X012870Y010376D03*
X012870Y010876D03*
X012870Y011376D03*
X014917Y011376D03*
X014917Y010876D03*
X014917Y010376D03*
X014917Y009876D03*
D11*
X015724Y012001D03*
X016188Y013126D03*
X014849Y013126D03*
X017063Y012001D03*
X018724Y015751D03*
X020063Y015751D03*
D12*
X020018Y014376D03*
X019143Y013251D03*
X018143Y013251D03*
X016018Y014251D03*
X016018Y010251D03*
X021018Y010376D03*
X021018Y014376D03*
X021018Y016751D03*
X020018Y018376D03*
X020018Y020376D03*
X019018Y020376D03*
X021018Y020751D03*
X016268Y019876D03*
X014518Y019876D03*
X013268Y019626D03*
X011768Y023001D03*
X010768Y023001D03*
X013268Y023626D03*
X014518Y023876D03*
X016268Y023876D03*
D13*
X016268Y021500D03*
X016268Y020752D03*
X017268Y013625D03*
X017268Y012877D03*
X017018Y011000D03*
X017018Y010252D03*
D14*
X017894Y011501D03*
X018642Y011501D03*
X019394Y010376D03*
X019767Y009501D03*
X019019Y009501D03*
X020142Y010376D03*
X017517Y014376D03*
X016769Y014376D03*
X012892Y012876D03*
X012144Y012876D03*
X009642Y008376D03*
X008894Y008376D03*
X009894Y018626D03*
X009894Y019376D03*
X010642Y019376D03*
X010642Y018626D03*
D15*
X022518Y018501D03*
X022518Y017501D03*
X022518Y016501D03*
X022518Y015501D03*
X022518Y014501D03*
X022518Y013501D03*
X022518Y012501D03*
X022518Y011501D03*
X022518Y010501D03*
X022518Y009501D03*
X023518Y009501D03*
X023518Y010501D03*
X023518Y011501D03*
X023518Y012501D03*
X023518Y013501D03*
X023518Y014501D03*
X023518Y015501D03*
X023518Y016501D03*
X023518Y017501D03*
X023518Y018501D03*
X023518Y019501D03*
X022518Y019501D03*
D16*
X018260Y010338D02*
X018343Y010255D01*
X018091Y010138D01*
X017835Y010231D01*
X017718Y010483D01*
X017811Y010739D01*
X018063Y010856D01*
X018319Y010763D01*
X018436Y010511D01*
X018343Y010255D01*
X018243Y010346D01*
X018086Y010273D01*
X017926Y010331D01*
X017853Y010488D01*
X017911Y010648D01*
X018068Y010721D01*
X018228Y010663D01*
X018301Y010506D01*
X018243Y010346D01*
X018143Y010437D01*
X018080Y010408D01*
X018017Y010431D01*
X017988Y010494D01*
X018011Y010557D01*
X018074Y010586D01*
X018137Y010563D01*
X018166Y010500D01*
X018143Y010437D01*
X022018Y008970D02*
X022101Y008887D01*
X021849Y008770D01*
X021593Y008863D01*
X021476Y009115D01*
X021569Y009371D01*
X021821Y009488D01*
X022077Y009395D01*
X022194Y009143D01*
X022101Y008887D01*
X022001Y008978D01*
X021844Y008905D01*
X021684Y008963D01*
X021611Y009120D01*
X021669Y009280D01*
X021826Y009353D01*
X021986Y009295D01*
X022059Y009138D01*
X022001Y008978D01*
X021901Y009069D01*
X021838Y009040D01*
X021775Y009063D01*
X021746Y009126D01*
X021769Y009189D01*
X021832Y009218D01*
X021895Y009195D01*
X021924Y009132D01*
X021901Y009069D01*
X012302Y007273D02*
X012385Y007190D01*
X012109Y007190D01*
X011915Y007384D01*
X011915Y007660D01*
X012109Y007854D01*
X012385Y007854D01*
X012579Y007660D01*
X012579Y007384D01*
X012385Y007190D01*
X012333Y007315D01*
X012161Y007315D01*
X012040Y007436D01*
X012040Y007608D01*
X012161Y007729D01*
X012333Y007729D01*
X012454Y007608D01*
X012454Y007436D01*
X012333Y007315D01*
X012281Y007440D01*
X012213Y007440D01*
X012165Y007488D01*
X012165Y007556D01*
X012213Y007604D01*
X012281Y007604D01*
X012329Y007556D01*
X012329Y007488D01*
X012281Y007440D01*
D17*
X011540Y008229D03*
X010893Y009876D03*
X010893Y010876D03*
X010893Y011876D03*
X010893Y012876D03*
X013893Y012876D03*
X013893Y011876D03*
X013893Y010876D03*
X013893Y009876D03*
D18*
X018955Y016751D03*
X022358Y025697D03*
X009581Y025001D03*
X008456Y018501D03*
D19*
X010938Y016751D03*
X015214Y022057D03*
X017599Y025001D03*
X016474Y018501D03*
D20*
X018563Y021501D02*
X019474Y021501D01*
X019474Y022501D02*
X018563Y022501D01*
X018563Y023501D02*
X019474Y023501D01*
D21*
X023018Y023001D03*
D22*
X023018Y021001D03*
D23*
X021443Y012501D03*
X020843Y012501D03*
X020818Y011501D03*
X020218Y011501D03*
X011693Y015001D03*
X011093Y015001D03*
D24*
X021018Y015201D03*
X021018Y015801D03*
D25*
X018768Y014875D03*
X018768Y014127D03*
D26*
X015628Y016626D03*
D27*
X012754Y017523D03*
X012754Y015728D03*
D28*
X011767Y015751D03*
X011019Y015751D03*
X018269Y012376D03*
X019017Y012376D03*
X011767Y023876D03*
X011019Y023876D03*
D29*
X011143Y020649D03*
X011643Y020649D03*
X012143Y020649D03*
X012643Y020649D03*
X012643Y018602D03*
X012143Y018602D03*
X011643Y018602D03*
X011143Y018602D03*
D30*
X010652Y025001D03*
X012385Y025001D03*
D31*
X024018Y022591D03*
X024018Y021410D03*
D32*
X017393Y021449D03*
X017393Y022552D03*
D33*
X008893Y015876D03*
X013018Y006563D03*
D34*
X008893Y006876D03*
X022018Y006563D03*
D35*
X008143Y004876D02*
X007518Y004876D01*
X007518Y005501D01*
X012143Y009876D02*
X011143Y010876D01*
X010893Y010876D01*
X011643Y011001D02*
X011643Y011626D01*
X011268Y011876D01*
X010893Y011876D01*
X011643Y011001D02*
X012268Y010376D01*
X012870Y010376D01*
X013393Y010438D01*
X013893Y010876D01*
X014917Y010876D01*
X015518Y010876D01*
X015893Y011251D01*
X016143Y011251D01*
X016393Y011751D01*
X016393Y012501D01*
X016893Y012751D01*
X017268Y012877D01*
X017268Y013625D02*
X017267Y013626D01*
X017268Y013625D02*
X017517Y014376D01*
X018143Y014376D02*
X018143Y014751D01*
X018018Y015001D01*
X013393Y015001D01*
X012768Y014876D01*
X012144Y012876D02*
X012018Y012251D01*
X012018Y011251D01*
X012393Y010876D01*
X012870Y010876D01*
X012870Y009876D02*
X012143Y009876D01*
X013893Y009876D02*
X014393Y010376D01*
X014917Y010376D01*
X014917Y011376D02*
X014393Y011376D01*
X013893Y011876D01*
X017063Y012001D02*
X017018Y011000D01*
X017894Y011501D01*
X019393Y011501D02*
X019393Y010377D01*
X019394Y010376D01*
X019393Y011501D02*
X019893Y012501D01*
X019893Y013501D01*
X019456Y013938D01*
X018768Y014127D01*
X018392Y014127D01*
X018143Y014376D01*
X019893Y013501D02*
X020643Y013501D01*
X021443Y012951D01*
X021443Y012501D01*
X021093Y015126D02*
X021018Y015201D01*
X017893Y008001D02*
X017268Y008001D01*
X017268Y007501D01*
X017268Y006751D01*
X017893Y007126D01*
X017268Y007501D01*
X016893Y007251D02*
X016393Y007251D01*
X016393Y008001D01*
X017268Y006751D01*
X016393Y006751D02*
X016393Y007251D01*
X024268Y004876D02*
X024893Y004876D01*
X024893Y005501D01*
X012143Y020649D02*
X012143Y021251D01*
X010768Y023001D01*
X011019Y023876D01*
X011767Y023876D02*
X011768Y023001D01*
X008143Y026376D02*
X007518Y026376D01*
X007518Y025751D01*
X024268Y026376D02*
X024893Y026376D01*
X024893Y025751D01*
D36*
X021018Y020751D02*
X021018Y019501D01*
X021518Y018751D01*
X019018Y020376D02*
X019018Y021501D01*
X017393Y021449D02*
X017393Y019376D01*
X016518Y018501D01*
X016474Y018501D01*
X014393Y018501D01*
X013416Y017523D01*
X012754Y017523D01*
X012754Y017111D01*
X012393Y016751D01*
X010938Y016751D01*
X010518Y017501D02*
X009893Y018126D01*
X009893Y018125D01*
X009894Y018626D01*
X009894Y019376D01*
X009893Y019877D01*
X010642Y019376D02*
X011143Y019376D01*
X011143Y020649D01*
X011643Y020649D02*
X011643Y021251D01*
X011018Y022001D01*
X010643Y022001D01*
X009581Y023063D01*
X009581Y025001D01*
X010652Y025001D01*
X011768Y023001D02*
X012268Y021876D01*
X012643Y021385D01*
X012643Y020649D01*
X012643Y021385D02*
X014384Y021385D01*
X015214Y022057D01*
X016268Y021500D01*
X015956Y019376D02*
X015706Y019063D01*
X014057Y019063D01*
X013596Y018602D01*
X012643Y018602D01*
X012143Y018602D02*
X012143Y018001D01*
X011643Y017501D01*
X010518Y017501D01*
X010642Y018626D02*
X011143Y018626D01*
X011143Y019376D01*
X011143Y018626D02*
X011143Y018602D01*
X011643Y018602D01*
X012018Y019626D02*
X013268Y019626D01*
X012018Y019626D02*
X011643Y020001D01*
X011643Y020649D01*
X008456Y018501D02*
X008456Y017813D01*
X010518Y015751D01*
X011019Y015751D01*
X011093Y015001D02*
X011093Y014176D01*
X010893Y013751D01*
X010893Y012876D01*
X012144Y012876D01*
X012870Y012853D02*
X012892Y012876D01*
X013893Y012876D01*
X014849Y013126D02*
X014849Y012001D01*
X015724Y012001D01*
X014849Y012001D02*
X014849Y011376D01*
X014917Y011376D01*
X014917Y010376D02*
X015893Y010376D01*
X016018Y010251D01*
X016394Y010252D01*
X017018Y010252D01*
X015143Y009751D02*
X014917Y009876D01*
X012870Y011376D02*
X012870Y012853D01*
X016188Y013126D02*
X016688Y013626D01*
X017267Y013626D01*
X016769Y014376D02*
X016018Y014251D01*
D37*
X015143Y014251D01*
X013893Y013876D01*
X013893Y012876D01*
X011693Y015001D02*
X011767Y015751D01*
X012754Y015728D01*
X011019Y015751D02*
X011093Y015001D01*
X010143Y014876D02*
X008893Y015876D01*
X010143Y014876D02*
X009893Y014376D01*
X009893Y010876D01*
X010893Y010876D01*
X010893Y009876D02*
X011893Y009251D01*
X013268Y009251D01*
X013768Y008751D01*
X015393Y008751D01*
X015393Y009376D01*
X015143Y009751D01*
X015393Y009376D02*
X017768Y009376D01*
X018077Y010497D01*
X018642Y011188D01*
X018642Y011501D01*
X019017Y012376D01*
X019143Y013251D01*
X018143Y013251D02*
X017769Y012877D01*
X017268Y012877D01*
X018269Y012376D01*
X018077Y010497D02*
X019019Y009501D01*
X019018Y009500D01*
X019018Y008501D01*
X020018Y007501D01*
X022018Y006563D01*
X022018Y007813D01*
X022581Y008313D01*
X023893Y008313D01*
X024518Y009001D01*
X024518Y020626D01*
X024018Y021410D01*
X023018Y021001D01*
X021893Y021501D01*
X021018Y022001D02*
X021018Y020751D01*
X020018Y020376D01*
X020143Y021501D02*
X019018Y021501D01*
X017393Y021449D01*
X016268Y021500D01*
X016268Y020752D02*
X016268Y019876D01*
X015956Y019376D01*
X014518Y019876D02*
X013893Y019876D01*
X013268Y019626D01*
X014018Y022876D02*
X013268Y023626D01*
X013393Y024126D01*
X013393Y025751D01*
X013143Y026001D01*
X009143Y026001D01*
X008643Y025501D01*
X008643Y023126D01*
X010268Y021501D01*
X010268Y020376D01*
X009894Y019877D01*
X009894Y019376D01*
X011767Y023876D02*
X012385Y025001D01*
X014518Y023876D02*
X014893Y025126D01*
X014518Y023876D02*
X016268Y023876D01*
X015768Y023126D02*
X016342Y022552D01*
X017393Y022552D01*
X019018Y022501D01*
X020518Y022501D01*
X021018Y022001D01*
X023018Y023001D02*
X024018Y022591D01*
X023518Y019501D02*
X023018Y019501D01*
X022518Y019501D01*
X022518Y018501D02*
X021518Y018751D01*
X021018Y018376D02*
X020393Y019251D01*
X019268Y019251D01*
X017393Y017376D01*
X016378Y017376D01*
X015628Y016626D01*
X018018Y016501D02*
X018018Y015001D01*
X018768Y014875D02*
X018724Y015751D01*
X018768Y014875D02*
X019394Y014875D01*
X020018Y014376D01*
X020568Y015201D02*
X020188Y015456D01*
X020063Y015751D01*
X020568Y015201D02*
X021018Y015201D01*
X021443Y015201D01*
X022518Y014501D01*
X023518Y014501D01*
X023518Y015501D02*
X022518Y015501D01*
X022518Y015801D01*
X021018Y015801D01*
X021643Y016501D02*
X021018Y016751D01*
X021018Y018376D01*
X020018Y018376D02*
X018955Y016751D01*
X018268Y016751D01*
X018018Y016501D01*
X021018Y014376D02*
X021143Y014001D01*
X021643Y013626D01*
X022518Y013501D01*
X023518Y013501D01*
X023518Y012501D02*
X022518Y012501D01*
X021443Y012501D01*
X020843Y012501D02*
X020218Y012001D01*
X020218Y011501D01*
X020218Y011051D01*
X021018Y010376D01*
X022518Y010501D01*
X023518Y010501D01*
X023518Y011501D02*
X022518Y011501D01*
X021643Y011501D01*
X020818Y011501D01*
X020642Y010377D02*
X020142Y010376D01*
X020642Y010377D02*
X021018Y010376D01*
X021835Y009129D02*
X022518Y009501D01*
X023518Y009501D01*
X021835Y009129D02*
X019767Y009501D01*
X015393Y008751D02*
X015393Y007001D01*
X014018Y005376D01*
X012393Y005376D01*
X012018Y005751D01*
X012018Y006876D01*
X012012Y007386D01*
X012247Y007522D01*
X012012Y007386D02*
X011456Y007063D01*
X011540Y008229D02*
X011936Y008626D01*
X012893Y008626D01*
X013018Y008501D01*
X013018Y006563D01*
X011540Y008229D02*
X009893Y008376D01*
X009642Y008376D01*
X009893Y008376D02*
X009893Y010876D01*
X008893Y008500D02*
X008893Y006876D01*
X009331Y006876D01*
X009331Y006875D02*
X009382Y006933D01*
X009435Y006987D01*
X009491Y007039D01*
X009550Y007088D01*
X009611Y007134D01*
X009674Y007177D01*
X009739Y007217D01*
X009807Y007253D01*
X009876Y007286D01*
X009946Y007315D01*
X010018Y007340D01*
X010092Y007362D01*
X010166Y007380D01*
X010241Y007395D01*
X010316Y007405D01*
X010393Y007412D01*
X010469Y007415D01*
X010545Y007414D01*
X010622Y007409D01*
X010697Y007400D01*
X010773Y007388D01*
X010847Y007371D01*
X010921Y007351D01*
X010994Y007327D01*
X011065Y007300D01*
X011135Y007269D01*
X011203Y007234D01*
X011269Y007196D01*
X011334Y007155D01*
X011396Y007110D01*
X011455Y007063D01*
X008894Y008376D02*
X008893Y008500D01*
X014018Y022876D02*
X014768Y022876D01*
X015143Y023126D01*
X015768Y023126D01*
X021643Y016501D02*
X022518Y016501D01*
X022518Y015501D01*
X022518Y016501D02*
X023518Y016501D01*
X023518Y017501D02*
X022518Y017501D01*
X022518Y018501D01*
X023518Y018501D01*
D38*
X021893Y021501D03*
X020143Y021501D03*
X014893Y025126D03*
X012768Y014876D03*
X015143Y014251D03*
X010143Y014876D03*
X021643Y011501D03*
D39*
X023018Y019501D02*
X023018Y021001D01*
D40*
X023893Y024813D03*
X008518Y020938D03*
X020018Y007501D03*
X023893Y006313D03*
X010518Y005938D03*
D41*
X021733Y023501D02*
X023018Y023001D01*
X021733Y023501D02*
X021643Y023501D01*
X021643Y024983D01*
X022358Y025697D01*
X021643Y023501D02*
X019018Y023501D01*
X017599Y025001D01*
X016268Y023876D01*
M02*
