G75*
G70*
%OFA0B0*%
%FSLAX24Y24*%
%IPPOS*%
%LPD*%
%AMOC8*
5,1,8,0,0,1.08239X$1,22.5*
%
%ADD10C,0.0051*%
%ADD11C,0.0110*%
%ADD12C,0.0160*%
%ADD13C,0.0240*%
%ADD14C,0.0060*%
%ADD15R,0.0240X0.0340*%
%ADD16C,0.0050*%
%ADD17C,0.0100*%
%ADD18R,0.0200X0.0200*%
%ADD19R,0.0120X0.0240*%
%ADD20R,0.0200X0.1000*%
%ADD21C,0.0197*%
%ADD22C,0.0020*%
%ADD23C,0.0040*%
%ADD24R,0.0650X0.0500*%
%ADD25R,0.0350X0.0500*%
%ADD26C,0.0070*%
%ADD27R,0.0900X0.0250*%
%ADD28C,0.0200*%
%ADD29R,0.0800X0.0200*%
%ADD30R,0.0200X0.0750*%
%ADD31C,0.0120*%
%ADD32C,0.0300*%
%ADD33R,0.1200X0.0200*%
%ADD34R,0.0300X0.0350*%
%ADD35R,0.0200X0.1200*%
%ADD36R,0.0350X0.0300*%
D10*
X001544Y006313D02*
X026643Y006313D01*
X029893Y005938D02*
X005606Y005938D01*
X006393Y005938D02*
X006291Y006962D01*
X006268Y006962D02*
X006519Y006962D01*
X006393Y005938D01*
X006496Y006962D01*
X006445Y006962D02*
X006393Y005938D01*
X006342Y006962D01*
X006268Y006962D02*
X006393Y005938D01*
X006393Y022251D01*
X006496Y021227D01*
X006519Y021227D02*
X006393Y022251D01*
X006291Y021227D01*
X006268Y021227D02*
X006519Y021227D01*
X006445Y021227D02*
X006393Y022251D01*
X006342Y021227D01*
X006268Y021227D02*
X006393Y022251D01*
X005606Y022251D02*
X027893Y022251D01*
X027143Y024813D02*
X001544Y024813D01*
X002331Y024813D02*
X002433Y023789D01*
X002457Y023789D02*
X002331Y024813D01*
X002229Y023789D01*
X002205Y023789D02*
X002457Y023789D01*
X002382Y023789D02*
X002331Y024813D01*
X002280Y023789D01*
X002205Y023789D02*
X002331Y024813D01*
X002331Y006313D01*
X002433Y007337D01*
X002457Y007337D02*
X002331Y006313D01*
X002229Y007337D01*
X002205Y007337D02*
X002457Y007337D01*
X002382Y007337D02*
X002331Y006313D01*
X002280Y007337D01*
X002205Y007337D02*
X002331Y006313D01*
X007518Y000438D02*
X007518Y032100D01*
X007518Y031313D02*
X008542Y031211D01*
X008542Y031187D02*
X007518Y031313D01*
X008542Y031415D01*
X008542Y031439D02*
X008542Y031187D01*
X008542Y031262D02*
X007518Y031313D01*
X008542Y031364D01*
X008542Y031439D02*
X007518Y031313D01*
X024893Y031313D01*
X023870Y031211D01*
X023870Y031187D02*
X024893Y031313D01*
X023870Y031415D01*
X023870Y031439D02*
X023870Y031187D01*
X023870Y031262D02*
X024893Y031313D01*
X023870Y031364D01*
X023870Y031439D02*
X024893Y031313D01*
X024893Y032100D02*
X024893Y000126D01*
X023893Y002626D02*
X023893Y028913D01*
X023893Y028126D02*
X022870Y028023D01*
X022870Y028000D02*
X023893Y028126D01*
X022870Y028228D01*
X022870Y028251D02*
X022870Y028000D01*
X022870Y028074D02*
X023893Y028126D01*
X022870Y028177D01*
X022870Y028251D02*
X023893Y028126D01*
X010518Y028126D01*
X011542Y028023D01*
X011542Y028000D02*
X010518Y028126D01*
X011542Y028228D01*
X011542Y028251D02*
X011542Y028000D01*
X011542Y028074D02*
X010518Y028126D01*
X011542Y028177D01*
X011542Y028251D02*
X010518Y028126D01*
X010518Y028913D02*
X010518Y002751D01*
D11*
X005310Y011682D02*
X005310Y012528D01*
X005099Y012951D02*
X004676Y013374D01*
X005945Y013374D01*
X005945Y012951D02*
X005945Y013797D01*
X005945Y014220D02*
X005945Y014432D01*
X005733Y014432D01*
X005733Y014220D01*
X005945Y014220D01*
X005310Y014854D02*
X005310Y015700D01*
X004887Y016123D02*
X004676Y016335D01*
X004676Y016758D01*
X004887Y016969D01*
X005099Y016969D01*
X005310Y016758D01*
X005522Y016969D01*
X005733Y016969D01*
X005945Y016758D01*
X005945Y016335D01*
X005733Y016123D01*
X005945Y015489D02*
X004676Y015489D01*
X005310Y014854D01*
X005310Y016546D02*
X005310Y016758D01*
X001882Y016958D02*
X001882Y016535D01*
X001671Y016323D01*
X001671Y015900D02*
X001882Y015900D01*
X001882Y015689D01*
X001671Y015689D01*
X001671Y015900D01*
X001671Y015266D02*
X001459Y015266D01*
X001248Y015054D01*
X001248Y014420D01*
X001671Y014420D01*
X001882Y014631D01*
X001882Y015054D01*
X001671Y015266D01*
X000825Y014843D02*
X001248Y014420D01*
X001248Y013997D02*
X001248Y013151D01*
X000613Y013786D01*
X001882Y013786D01*
X000825Y014843D02*
X000613Y015266D01*
X000825Y016323D02*
X001036Y016323D01*
X001248Y016535D01*
X001248Y017169D01*
X001671Y017169D02*
X000825Y017169D01*
X000613Y016958D01*
X000613Y016535D01*
X000825Y016323D01*
X001671Y017169D02*
X001882Y016958D01*
X001671Y017592D02*
X001882Y017803D01*
X001882Y018226D01*
X001671Y018438D01*
X000825Y018438D01*
X000613Y018226D01*
X000613Y017803D01*
X000825Y017592D01*
X001036Y017592D01*
X001248Y017803D01*
X001248Y018438D01*
X004676Y012317D02*
X005310Y011682D01*
X004676Y012317D02*
X005945Y012317D01*
X015006Y028574D02*
X014794Y028786D01*
X015006Y028574D02*
X015429Y028574D01*
X015640Y028786D01*
X015640Y028997D01*
X015429Y029209D01*
X015217Y029209D01*
X015429Y029209D02*
X015640Y029420D01*
X015640Y029632D01*
X015429Y029843D01*
X015006Y029843D01*
X014794Y029632D01*
X016063Y029632D02*
X016274Y029843D01*
X016697Y029843D01*
X016909Y029632D01*
X016909Y029420D01*
X016697Y029209D01*
X016909Y028997D01*
X016909Y028786D01*
X016697Y028574D01*
X016274Y028574D01*
X016063Y028786D01*
X016486Y029209D02*
X016697Y029209D01*
X017332Y028786D02*
X017332Y028574D01*
X017543Y028574D01*
X017543Y028786D01*
X017332Y028786D01*
X017966Y028786D02*
X018178Y028574D01*
X018601Y028574D01*
X018812Y028786D01*
X018812Y029632D01*
X018601Y029843D01*
X018178Y029843D01*
X017966Y029632D01*
X017966Y029420D01*
X018178Y029209D01*
X018812Y029209D01*
X019235Y028786D02*
X019235Y028574D01*
X019235Y028786D02*
X020081Y029632D01*
X020081Y029843D01*
X019235Y029843D01*
X018869Y031762D02*
X018446Y031762D01*
X018235Y031973D01*
X017812Y031762D02*
X016966Y031762D01*
X016543Y031762D02*
X016543Y031973D01*
X016332Y031973D01*
X016332Y031762D01*
X016543Y031762D01*
X017389Y031762D02*
X017389Y033031D01*
X016966Y032608D01*
X015909Y032396D02*
X015063Y032396D01*
X015697Y033031D01*
X015697Y031762D01*
X014640Y032396D02*
X013794Y032396D01*
X014429Y033031D01*
X014429Y031762D01*
X018235Y032819D02*
X018446Y033031D01*
X018869Y033031D01*
X019081Y032819D01*
X019081Y032608D01*
X018869Y032396D01*
X019081Y032185D01*
X019081Y031973D01*
X018869Y031762D01*
X018869Y032396D02*
X018658Y032396D01*
D12*
X009456Y023938D02*
X009456Y023188D01*
X008956Y023188D01*
X008581Y023438D02*
X008581Y022688D01*
X007956Y023063D01*
X008581Y023438D01*
X008581Y023938D01*
X007956Y023938D01*
X008581Y022688D02*
X009456Y023938D01*
X009456Y023188D02*
X009456Y022688D01*
D13*
X013268Y023226D02*
X013268Y023626D01*
X014518Y023476D02*
X014518Y023876D01*
X016268Y023876D02*
X016268Y023476D01*
X016268Y020276D02*
X016268Y019876D01*
X014518Y019876D02*
X014518Y020276D01*
X013268Y020026D02*
X013268Y019626D01*
X016018Y014251D02*
X016018Y013851D01*
X016018Y010651D02*
X016018Y010251D01*
X018077Y010497D02*
X018218Y010446D01*
X021018Y010376D02*
X021018Y010776D01*
X021694Y009180D02*
X021835Y009129D01*
X021018Y013976D02*
X021018Y014376D01*
X020018Y014376D02*
X020018Y014776D01*
X020018Y017976D02*
X020018Y018376D01*
D14*
X020618Y017951D02*
X020618Y019551D01*
X020620Y019568D01*
X020624Y019585D01*
X020631Y019601D01*
X020641Y019615D01*
X020654Y019628D01*
X020668Y019638D01*
X020684Y019645D01*
X020701Y019649D01*
X020718Y019651D01*
X021318Y019651D01*
X021335Y019649D01*
X021352Y019645D01*
X021368Y019638D01*
X021382Y019628D01*
X021395Y019615D01*
X021405Y019601D01*
X021412Y019585D01*
X021416Y019568D01*
X021418Y019551D01*
X021418Y017951D01*
X021416Y017934D01*
X021412Y017917D01*
X021405Y017901D01*
X021395Y017887D01*
X021382Y017874D01*
X021368Y017864D01*
X021352Y017857D01*
X021335Y017853D01*
X021318Y017851D01*
X020718Y017851D01*
X020701Y017853D01*
X020684Y017857D01*
X020668Y017864D01*
X020654Y017874D01*
X020641Y017887D01*
X020631Y017901D01*
X020624Y017917D01*
X020620Y017934D01*
X020618Y017951D01*
X020368Y017626D02*
X019668Y017626D01*
X019651Y017624D01*
X019634Y017620D01*
X019618Y017613D01*
X019604Y017603D01*
X019591Y017590D01*
X019581Y017576D01*
X019574Y017560D01*
X019570Y017543D01*
X019568Y017526D01*
X019568Y017376D01*
X019618Y017326D01*
X019618Y015426D01*
X019568Y015376D01*
X019568Y015226D01*
X019570Y015209D01*
X019574Y015192D01*
X019581Y015176D01*
X019591Y015162D01*
X019604Y015149D01*
X019618Y015139D01*
X019634Y015132D01*
X019651Y015128D01*
X019668Y015126D01*
X020368Y015126D01*
X020385Y015128D01*
X020402Y015132D01*
X020418Y015139D01*
X020432Y015149D01*
X020445Y015162D01*
X020455Y015176D01*
X020462Y015192D01*
X020466Y015209D01*
X020468Y015226D01*
X020468Y015376D01*
X020418Y015426D01*
X020418Y017326D01*
X020468Y017376D01*
X020468Y017526D01*
X020466Y017543D01*
X020462Y017560D01*
X020455Y017576D01*
X020445Y017590D01*
X020432Y017603D01*
X020418Y017613D01*
X020402Y017620D01*
X020385Y017624D01*
X020368Y017626D01*
X020768Y018351D02*
X021018Y018751D01*
X020768Y018751D01*
X021018Y018751D02*
X021268Y018351D01*
X020768Y018351D01*
X021018Y018151D02*
X021018Y018751D01*
X021268Y018751D01*
X021018Y018751D02*
X021018Y019001D01*
X022018Y019251D02*
X022018Y019751D01*
X022268Y020001D01*
X023768Y020001D01*
X024018Y019751D01*
X024018Y019251D01*
X023768Y019001D01*
X022268Y019001D01*
X022018Y019251D01*
X022268Y019001D02*
X022018Y018751D01*
X022018Y018251D01*
X022268Y018001D01*
X023768Y018001D01*
X024018Y018251D01*
X024018Y018751D01*
X023768Y019001D01*
X023768Y018001D02*
X024018Y017751D01*
X024018Y017251D01*
X023768Y017001D01*
X022268Y017001D01*
X022018Y016751D01*
X022018Y016251D01*
X022268Y016001D01*
X023768Y016001D01*
X024018Y015751D01*
X024018Y015251D01*
X023768Y015001D01*
X022268Y015001D01*
X022018Y014751D01*
X022018Y014251D01*
X022268Y014001D01*
X023768Y014001D01*
X024018Y014251D01*
X024018Y014751D01*
X023768Y015001D01*
X023768Y016001D02*
X022268Y016001D01*
X022018Y015751D01*
X022018Y015251D01*
X022268Y015001D01*
X022268Y014001D02*
X023768Y014001D01*
X024018Y013751D01*
X024018Y013251D01*
X023768Y013001D01*
X022268Y013001D01*
X022018Y012751D01*
X022018Y012251D01*
X022268Y012001D01*
X023768Y012001D01*
X024018Y012251D01*
X024018Y012751D01*
X023768Y013001D01*
X023768Y012001D02*
X024018Y011751D01*
X024018Y011251D01*
X023768Y011001D01*
X022268Y011001D01*
X022018Y010751D01*
X022018Y010251D01*
X022268Y010001D01*
X022018Y009751D01*
X022018Y009251D01*
X022268Y009001D01*
X023768Y009001D01*
X024018Y009251D01*
X024018Y009751D01*
X023768Y010001D01*
X022268Y010001D01*
X021724Y009702D02*
X021382Y008762D01*
X021375Y008746D01*
X021365Y008732D01*
X021352Y008719D01*
X021338Y008709D01*
X021322Y008702D01*
X021305Y008698D01*
X021288Y008696D01*
X021271Y008698D01*
X021254Y008702D01*
X021019Y008788D01*
X020989Y008852D01*
X018546Y009741D01*
X018482Y009711D01*
X018247Y009797D01*
X018247Y009796D02*
X018231Y009803D01*
X018217Y009813D01*
X018204Y009826D01*
X018194Y009840D01*
X018187Y009856D01*
X018183Y009873D01*
X018181Y009890D01*
X018183Y009907D01*
X018187Y009924D01*
X018187Y009925D02*
X018530Y010864D01*
X018529Y010864D02*
X018536Y010880D01*
X018546Y010894D01*
X018559Y010907D01*
X018573Y010917D01*
X018589Y010924D01*
X018606Y010928D01*
X018623Y010930D01*
X018640Y010928D01*
X018657Y010924D01*
X018658Y010924D02*
X018893Y010839D01*
X018922Y010775D01*
X021366Y009885D01*
X021430Y009915D01*
X021665Y009830D01*
X021664Y009830D02*
X021680Y009823D01*
X021694Y009813D01*
X021707Y009800D01*
X021717Y009786D01*
X021724Y009770D01*
X021728Y009753D01*
X021730Y009736D01*
X021728Y009719D01*
X021724Y009702D01*
X022268Y011001D02*
X022018Y011251D01*
X022018Y011751D01*
X022268Y012001D01*
X023768Y012001D01*
X023768Y011001D02*
X024018Y010751D01*
X024018Y010251D01*
X023768Y010001D01*
X021468Y011226D02*
X021468Y011376D01*
X021418Y011426D01*
X021418Y013326D01*
X021468Y013376D01*
X021468Y013526D01*
X021466Y013543D01*
X021462Y013560D01*
X021455Y013576D01*
X021445Y013590D01*
X021432Y013603D01*
X021418Y013613D01*
X021402Y013620D01*
X021385Y013624D01*
X021368Y013626D01*
X020668Y013626D01*
X020651Y013624D01*
X020634Y013620D01*
X020618Y013613D01*
X020604Y013603D01*
X020591Y013590D01*
X020581Y013576D01*
X020574Y013560D01*
X020570Y013543D01*
X020568Y013526D01*
X020568Y013376D01*
X020618Y013326D01*
X020618Y011426D01*
X020568Y011376D01*
X020568Y011226D01*
X020570Y011209D01*
X020574Y011192D01*
X020581Y011176D01*
X020591Y011162D01*
X020604Y011149D01*
X020618Y011139D01*
X020634Y011132D01*
X020651Y011128D01*
X020668Y011126D01*
X021368Y011126D01*
X021385Y011128D01*
X021402Y011132D01*
X021418Y011139D01*
X021432Y011149D01*
X021445Y011162D01*
X021455Y011176D01*
X021462Y011192D01*
X021466Y011209D01*
X021468Y011226D01*
X022268Y013001D02*
X022018Y013251D01*
X022018Y013751D01*
X022268Y014001D01*
X023768Y016001D02*
X024018Y016251D01*
X024018Y016751D01*
X023768Y017001D01*
X023768Y018001D02*
X022268Y018001D01*
X022018Y017751D01*
X022018Y017251D01*
X022268Y017001D01*
X020168Y019926D02*
X018868Y019926D01*
X018842Y019928D01*
X018816Y019933D01*
X018791Y019941D01*
X018768Y019953D01*
X018746Y019967D01*
X018727Y019985D01*
X018709Y020004D01*
X018695Y020026D01*
X018683Y020049D01*
X018675Y020074D01*
X018670Y020100D01*
X018668Y020126D01*
X018668Y020626D01*
X018670Y020652D01*
X018675Y020678D01*
X018683Y020703D01*
X018695Y020726D01*
X018709Y020748D01*
X018727Y020767D01*
X018746Y020785D01*
X018768Y020799D01*
X018791Y020811D01*
X018816Y020819D01*
X018842Y020824D01*
X018868Y020826D01*
X020168Y020826D01*
X020194Y020824D01*
X020220Y020819D01*
X020245Y020811D01*
X020268Y020799D01*
X020290Y020785D01*
X020309Y020767D01*
X020327Y020748D01*
X020341Y020726D01*
X020353Y020703D01*
X020361Y020678D01*
X020366Y020652D01*
X020368Y020626D01*
X020368Y020126D01*
X020366Y020100D01*
X020361Y020074D01*
X020353Y020049D01*
X020341Y020026D01*
X020327Y020004D01*
X020309Y019985D01*
X020290Y019967D01*
X020268Y019953D01*
X020245Y019941D01*
X020220Y019933D01*
X020194Y019928D01*
X020168Y019926D01*
X020018Y020376D02*
X019638Y020376D01*
X019388Y020376D02*
X019018Y020376D01*
X018018Y020451D02*
X013118Y020451D01*
X013118Y020801D01*
X012518Y020801D01*
X012518Y020451D01*
X011768Y020451D01*
X011768Y024551D01*
X012518Y024551D01*
X012518Y024201D01*
X013118Y024201D01*
X013118Y024551D01*
X018018Y024551D01*
X018018Y020451D01*
X016718Y020726D02*
X016718Y020876D01*
X016668Y020926D01*
X016668Y022826D01*
X016718Y022876D01*
X016718Y023026D01*
X016716Y023043D01*
X016712Y023060D01*
X016705Y023076D01*
X016695Y023090D01*
X016682Y023103D01*
X016668Y023113D01*
X016652Y023120D01*
X016635Y023124D01*
X016618Y023126D01*
X015918Y023126D01*
X015901Y023124D01*
X015884Y023120D01*
X015868Y023113D01*
X015854Y023103D01*
X015841Y023090D01*
X015831Y023076D01*
X015824Y023060D01*
X015820Y023043D01*
X015818Y023026D01*
X015818Y022876D01*
X015868Y022826D01*
X015868Y020926D01*
X015818Y020876D01*
X015818Y020726D01*
X015820Y020709D01*
X015824Y020692D01*
X015831Y020676D01*
X015841Y020662D01*
X015854Y020649D01*
X015868Y020639D01*
X015884Y020632D01*
X015901Y020628D01*
X015918Y020626D01*
X016618Y020626D01*
X016635Y020628D01*
X016652Y020632D01*
X016668Y020639D01*
X016682Y020649D01*
X016695Y020662D01*
X016705Y020676D01*
X016712Y020692D01*
X016716Y020709D01*
X016718Y020726D01*
X014968Y020726D02*
X014968Y020876D01*
X014918Y020926D01*
X014918Y022826D01*
X014968Y022876D01*
X014968Y023026D01*
X014966Y023043D01*
X014962Y023060D01*
X014955Y023076D01*
X014945Y023090D01*
X014932Y023103D01*
X014918Y023113D01*
X014902Y023120D01*
X014885Y023124D01*
X014868Y023126D01*
X014168Y023126D01*
X014151Y023124D01*
X014134Y023120D01*
X014118Y023113D01*
X014104Y023103D01*
X014091Y023090D01*
X014081Y023076D01*
X014074Y023060D01*
X014070Y023043D01*
X014068Y023026D01*
X014068Y022876D01*
X014118Y022826D01*
X014118Y020926D01*
X014068Y020876D01*
X014068Y020726D01*
X014070Y020709D01*
X014074Y020692D01*
X014081Y020676D01*
X014091Y020662D01*
X014104Y020649D01*
X014118Y020639D01*
X014134Y020632D01*
X014151Y020628D01*
X014168Y020626D01*
X014868Y020626D01*
X014885Y020628D01*
X014902Y020632D01*
X014918Y020639D01*
X014932Y020649D01*
X014945Y020662D01*
X014955Y020676D01*
X014962Y020692D01*
X014966Y020709D01*
X014968Y020726D01*
X013718Y020626D02*
X013718Y020476D01*
X013716Y020459D01*
X013712Y020442D01*
X013705Y020426D01*
X013695Y020412D01*
X013682Y020399D01*
X013668Y020389D01*
X013652Y020382D01*
X013635Y020378D01*
X013618Y020376D01*
X012918Y020376D01*
X012901Y020378D01*
X012884Y020382D01*
X012868Y020389D01*
X012854Y020399D01*
X012841Y020412D01*
X012831Y020426D01*
X012824Y020442D01*
X012820Y020459D01*
X012818Y020476D01*
X012818Y020626D01*
X012868Y020676D01*
X012868Y022576D01*
X012818Y022626D01*
X012818Y022776D01*
X012820Y022793D01*
X012824Y022810D01*
X012831Y022826D01*
X012841Y022840D01*
X012854Y022853D01*
X012868Y022863D01*
X012884Y022870D01*
X012901Y022874D01*
X012918Y022876D01*
X013618Y022876D01*
X013635Y022874D01*
X013652Y022870D01*
X013668Y022863D01*
X013682Y022853D01*
X013695Y022840D01*
X013705Y022826D01*
X013712Y022810D01*
X013716Y022793D01*
X013718Y022776D01*
X013718Y022626D01*
X013668Y022576D01*
X013668Y020676D01*
X013718Y020626D01*
X012408Y022501D02*
X012410Y022554D01*
X012416Y022607D01*
X012426Y022659D01*
X012440Y022710D01*
X012457Y022760D01*
X012478Y022809D01*
X012503Y022856D01*
X012531Y022901D01*
X012563Y022944D01*
X012598Y022984D01*
X012635Y023021D01*
X012675Y023056D01*
X012718Y023088D01*
X012763Y023116D01*
X012810Y023141D01*
X012859Y023162D01*
X012909Y023179D01*
X012960Y023193D01*
X013012Y023203D01*
X013065Y023209D01*
X013118Y023211D01*
X013171Y023209D01*
X013224Y023203D01*
X013276Y023193D01*
X013327Y023179D01*
X013377Y023162D01*
X013426Y023141D01*
X013473Y023116D01*
X013518Y023088D01*
X013561Y023056D01*
X013601Y023021D01*
X013638Y022984D01*
X013673Y022944D01*
X013705Y022901D01*
X013733Y022856D01*
X013758Y022809D01*
X013779Y022760D01*
X013796Y022710D01*
X013810Y022659D01*
X013820Y022607D01*
X013826Y022554D01*
X013828Y022501D01*
X013826Y022448D01*
X013820Y022395D01*
X013810Y022343D01*
X013796Y022292D01*
X013779Y022242D01*
X013758Y022193D01*
X013733Y022146D01*
X013705Y022101D01*
X013673Y022058D01*
X013638Y022018D01*
X013601Y021981D01*
X013561Y021946D01*
X013518Y021914D01*
X013473Y021886D01*
X013426Y021861D01*
X013377Y021840D01*
X013327Y021823D01*
X013276Y021809D01*
X013224Y021799D01*
X013171Y021793D01*
X013118Y021791D01*
X013065Y021793D01*
X013012Y021799D01*
X012960Y021809D01*
X012909Y021823D01*
X012859Y021840D01*
X012810Y021861D01*
X012763Y021886D01*
X012718Y021914D01*
X012675Y021946D01*
X012635Y021981D01*
X012598Y022018D01*
X012563Y022058D01*
X012531Y022101D01*
X012503Y022146D01*
X012478Y022193D01*
X012457Y022242D01*
X012440Y022292D01*
X012426Y022343D01*
X012416Y022395D01*
X012410Y022448D01*
X012408Y022501D01*
X012218Y022601D02*
X012218Y023401D01*
X012216Y023418D01*
X012212Y023435D01*
X012205Y023451D01*
X012195Y023465D01*
X012182Y023478D01*
X012168Y023488D01*
X012152Y023495D01*
X012135Y023499D01*
X012118Y023501D01*
X010418Y023501D01*
X010401Y023499D01*
X010384Y023495D01*
X010368Y023488D01*
X010354Y023478D01*
X010341Y023465D01*
X010331Y023451D01*
X010324Y023435D01*
X010320Y023418D01*
X010318Y023401D01*
X010318Y022601D01*
X010320Y022584D01*
X010324Y022567D01*
X010331Y022551D01*
X010341Y022537D01*
X010354Y022524D01*
X010368Y022514D01*
X010384Y022507D01*
X010401Y022503D01*
X010418Y022501D01*
X012118Y022501D01*
X012135Y022503D01*
X012152Y022507D01*
X012168Y022514D01*
X012182Y022524D01*
X012195Y022537D01*
X012205Y022551D01*
X012212Y022567D01*
X012216Y022584D01*
X012218Y022601D01*
X011568Y023001D02*
X011418Y023001D01*
X011368Y023001D01*
X011168Y023001D02*
X011118Y023001D01*
X010968Y023001D01*
X009993Y014876D02*
X007793Y014876D01*
X007743Y014826D01*
X007643Y014726D01*
X007643Y014526D01*
X007743Y014426D01*
X007743Y014826D01*
X007743Y014426D02*
X007793Y014376D01*
X007793Y014026D01*
X007893Y014026D01*
X007893Y014376D01*
X009843Y014376D01*
X009843Y014026D01*
X007893Y014026D01*
X007793Y014026D02*
X007743Y013976D01*
X007743Y007926D01*
X007793Y007876D01*
X009993Y007876D01*
X010143Y008026D01*
X010143Y013876D01*
X009993Y014026D01*
X009993Y007876D01*
X011045Y008512D02*
X011257Y008724D01*
X011045Y008724D02*
X011257Y008512D01*
X011434Y008335D02*
X011681Y008088D01*
X012035Y008441D01*
X012176Y008300D01*
X011469Y007593D01*
X011328Y007734D01*
X011681Y008088D01*
X010543Y007876D02*
X010545Y007949D01*
X010551Y008022D01*
X010561Y008094D01*
X010575Y008166D01*
X010592Y008237D01*
X010614Y008307D01*
X010639Y008376D01*
X010668Y008443D01*
X010700Y008508D01*
X010736Y008572D01*
X010776Y008634D01*
X010818Y008693D01*
X010864Y008750D01*
X010913Y008804D01*
X010965Y008856D01*
X011019Y008905D01*
X011076Y008951D01*
X011135Y008993D01*
X011197Y009033D01*
X011261Y009069D01*
X011326Y009101D01*
X011393Y009130D01*
X011462Y009155D01*
X011532Y009177D01*
X011603Y009194D01*
X011675Y009208D01*
X011747Y009218D01*
X011820Y009224D01*
X011893Y009226D01*
X011966Y009224D01*
X012039Y009218D01*
X012111Y009208D01*
X012183Y009194D01*
X012254Y009177D01*
X012324Y009155D01*
X012393Y009130D01*
X012460Y009101D01*
X012525Y009069D01*
X012589Y009033D01*
X012651Y008993D01*
X012710Y008951D01*
X012767Y008905D01*
X012821Y008856D01*
X012873Y008804D01*
X012922Y008750D01*
X012968Y008693D01*
X013010Y008634D01*
X013050Y008572D01*
X013086Y008508D01*
X013118Y008443D01*
X013147Y008376D01*
X013172Y008307D01*
X013194Y008237D01*
X013211Y008166D01*
X013225Y008094D01*
X013235Y008022D01*
X013241Y007949D01*
X013243Y007876D01*
X013241Y007803D01*
X013235Y007730D01*
X013225Y007658D01*
X013211Y007586D01*
X013194Y007515D01*
X013172Y007445D01*
X013147Y007376D01*
X013118Y007309D01*
X013086Y007244D01*
X013050Y007180D01*
X013010Y007118D01*
X012968Y007059D01*
X012922Y007002D01*
X012873Y006948D01*
X012821Y006896D01*
X012767Y006847D01*
X012710Y006801D01*
X012651Y006759D01*
X012589Y006719D01*
X012525Y006683D01*
X012460Y006651D01*
X012393Y006622D01*
X012324Y006597D01*
X012254Y006575D01*
X012183Y006558D01*
X012111Y006544D01*
X012039Y006534D01*
X011966Y006528D01*
X011893Y006526D01*
X011820Y006528D01*
X011747Y006534D01*
X011675Y006544D01*
X011603Y006558D01*
X011532Y006575D01*
X011462Y006597D01*
X011393Y006622D01*
X011326Y006651D01*
X011261Y006683D01*
X011197Y006719D01*
X011135Y006759D01*
X011076Y006801D01*
X011019Y006847D01*
X010965Y006896D01*
X010913Y006948D01*
X010864Y007002D01*
X010818Y007059D01*
X010776Y007118D01*
X010736Y007180D01*
X010700Y007244D01*
X010668Y007309D01*
X010639Y007376D01*
X010614Y007445D01*
X010592Y007515D01*
X010575Y007586D01*
X010561Y007658D01*
X010551Y007730D01*
X010545Y007803D01*
X010543Y007876D01*
X011243Y009376D02*
X013543Y009376D01*
X013543Y013376D01*
X012793Y013376D01*
X012791Y013337D01*
X012785Y013298D01*
X012776Y013260D01*
X012763Y013223D01*
X012746Y013187D01*
X012726Y013154D01*
X012702Y013122D01*
X012676Y013093D01*
X012647Y013067D01*
X012615Y013043D01*
X012582Y013023D01*
X012546Y013006D01*
X012509Y012993D01*
X012471Y012984D01*
X012432Y012978D01*
X012393Y012976D01*
X012354Y012978D01*
X012315Y012984D01*
X012277Y012993D01*
X012240Y013006D01*
X012204Y013023D01*
X012171Y013043D01*
X012139Y013067D01*
X012110Y013093D01*
X012084Y013122D01*
X012060Y013154D01*
X012040Y013187D01*
X012023Y013223D01*
X012010Y013260D01*
X012001Y013298D01*
X011995Y013337D01*
X011993Y013376D01*
X011243Y013376D01*
X011243Y009376D01*
X012070Y007699D02*
X012353Y007416D01*
X014018Y007663D02*
X014518Y007663D01*
X014518Y007513D01*
X014518Y005563D01*
X014868Y005563D01*
X014868Y005463D01*
X014918Y005413D01*
X020968Y005413D01*
X021018Y005463D01*
X021018Y007663D01*
X020868Y007813D01*
X015018Y007813D01*
X014868Y007663D01*
X021018Y007663D01*
X020818Y006563D02*
X016068Y006563D01*
X015518Y006563D02*
X015518Y005963D01*
X015718Y005963D01*
X015718Y007163D01*
X015518Y007163D01*
X015518Y006563D01*
X015068Y006563D01*
X015218Y006763D02*
X015218Y007063D01*
X015068Y006913D02*
X015368Y006913D01*
X014868Y007513D02*
X014868Y005563D01*
X014868Y005463D02*
X014518Y005463D01*
X014518Y005563D01*
X014518Y005463D02*
X014468Y005413D01*
X014368Y005313D01*
X014168Y005313D01*
X014068Y005413D01*
X014468Y005413D01*
X014918Y005413D02*
X015018Y005313D01*
X020868Y005313D01*
X020968Y005413D01*
X016368Y011001D02*
X015668Y011001D01*
X015651Y011003D01*
X015634Y011007D01*
X015618Y011014D01*
X015604Y011024D01*
X015591Y011037D01*
X015581Y011051D01*
X015574Y011067D01*
X015570Y011084D01*
X015568Y011101D01*
X015568Y011251D01*
X015618Y011301D01*
X015618Y013201D01*
X015568Y013251D01*
X015568Y013401D01*
X015570Y013418D01*
X015574Y013435D01*
X015581Y013451D01*
X015591Y013465D01*
X015604Y013478D01*
X015618Y013488D01*
X015634Y013495D01*
X015651Y013499D01*
X015668Y013501D01*
X016368Y013501D01*
X016385Y013499D01*
X016402Y013495D01*
X016418Y013488D01*
X016432Y013478D01*
X016445Y013465D01*
X016455Y013451D01*
X016462Y013435D01*
X016466Y013418D01*
X016468Y013401D01*
X016468Y013251D01*
X016418Y013201D01*
X016418Y011301D01*
X016468Y011251D01*
X016468Y011101D01*
X016466Y011084D01*
X016462Y011067D01*
X016455Y011051D01*
X016445Y011037D01*
X016432Y011024D01*
X016418Y011014D01*
X016402Y011007D01*
X016385Y011003D01*
X016368Y011001D01*
X017793Y012751D02*
X019493Y012751D01*
X019510Y012753D01*
X019527Y012757D01*
X019543Y012764D01*
X019557Y012774D01*
X019570Y012787D01*
X019580Y012801D01*
X019587Y012817D01*
X019591Y012834D01*
X019593Y012851D01*
X019593Y013651D01*
X019591Y013668D01*
X019587Y013685D01*
X019580Y013701D01*
X019570Y013715D01*
X019557Y013728D01*
X019543Y013738D01*
X019527Y013745D01*
X019510Y013749D01*
X019493Y013751D01*
X017793Y013751D01*
X017776Y013749D01*
X017759Y013745D01*
X017743Y013738D01*
X017729Y013728D01*
X017716Y013715D01*
X017706Y013701D01*
X017699Y013685D01*
X017695Y013668D01*
X017693Y013651D01*
X017693Y012851D01*
X017695Y012834D01*
X017699Y012817D01*
X017706Y012801D01*
X017716Y012787D01*
X017729Y012774D01*
X017743Y012764D01*
X017759Y012757D01*
X017776Y012753D01*
X017793Y012751D01*
X018343Y013251D02*
X018493Y013251D01*
X018543Y013251D01*
X018743Y013251D02*
X018793Y013251D01*
X018943Y013251D01*
X014368Y007813D02*
X014518Y007663D01*
X014868Y007663D01*
X014868Y007513D01*
X014518Y007513D01*
X014368Y007813D02*
X014168Y007813D01*
X014018Y007663D01*
X014018Y005463D01*
X014068Y005413D01*
X008893Y008076D02*
X008893Y012826D01*
X008893Y013376D02*
X008893Y013826D01*
X009093Y013676D02*
X009393Y013676D01*
X009243Y013826D02*
X009243Y013526D01*
X009493Y013376D02*
X008893Y013376D01*
X008293Y013376D01*
X008293Y013176D01*
X009493Y013176D01*
X009493Y013376D01*
X009843Y014026D02*
X009993Y014026D01*
X009993Y014376D01*
X009993Y014876D01*
X010143Y014726D01*
X010143Y014526D01*
X009993Y014376D01*
X009843Y014376D01*
X007893Y014376D02*
X007793Y014376D01*
X007743Y013976D02*
X007643Y013876D01*
X007643Y008026D01*
X007743Y007926D01*
X022568Y022101D02*
X023468Y022101D01*
X023468Y022351D01*
X023018Y022351D01*
X022568Y022351D01*
X022568Y022101D01*
X021268Y022001D02*
X021270Y022087D01*
X021276Y022173D01*
X021287Y022258D01*
X021302Y022342D01*
X021320Y022426D01*
X021343Y022509D01*
X021370Y022591D01*
X021401Y022671D01*
X021436Y022749D01*
X021475Y022826D01*
X021517Y022901D01*
X021563Y022973D01*
X021612Y023043D01*
X021665Y023111D01*
X021721Y023176D01*
X021781Y023238D01*
X021843Y023298D01*
X021908Y023354D01*
X021976Y023407D01*
X022046Y023456D01*
X022118Y023502D01*
X022193Y023544D01*
X022270Y023583D01*
X022348Y023618D01*
X022428Y023649D01*
X022510Y023676D01*
X022593Y023699D01*
X022677Y023717D01*
X022761Y023732D01*
X022846Y023743D01*
X022932Y023749D01*
X023018Y023751D01*
X023104Y023749D01*
X023190Y023743D01*
X023275Y023732D01*
X023359Y023717D01*
X023443Y023699D01*
X023526Y023676D01*
X023608Y023649D01*
X023688Y023618D01*
X023766Y023583D01*
X023843Y023544D01*
X023918Y023502D01*
X023990Y023456D01*
X024060Y023407D01*
X024128Y023354D01*
X024193Y023298D01*
X024255Y023238D01*
X024315Y023176D01*
X024371Y023111D01*
X024424Y023043D01*
X024473Y022973D01*
X024519Y022901D01*
X024561Y022826D01*
X024600Y022749D01*
X024635Y022671D01*
X024666Y022591D01*
X024693Y022509D01*
X024716Y022426D01*
X024734Y022342D01*
X024749Y022258D01*
X024760Y022173D01*
X024766Y022087D01*
X024768Y022001D01*
X024766Y021915D01*
X024760Y021829D01*
X024749Y021744D01*
X024734Y021660D01*
X024716Y021576D01*
X024693Y021493D01*
X024666Y021411D01*
X024635Y021331D01*
X024600Y021253D01*
X024561Y021176D01*
X024519Y021101D01*
X024473Y021029D01*
X024424Y020959D01*
X024371Y020891D01*
X024315Y020826D01*
X024255Y020764D01*
X024193Y020704D01*
X024128Y020648D01*
X024060Y020595D01*
X023990Y020546D01*
X023918Y020500D01*
X023843Y020458D01*
X023766Y020419D01*
X023688Y020384D01*
X023608Y020353D01*
X023526Y020326D01*
X023443Y020303D01*
X023359Y020285D01*
X023275Y020270D01*
X023190Y020259D01*
X023104Y020253D01*
X023018Y020251D01*
X022932Y020253D01*
X022846Y020259D01*
X022761Y020270D01*
X022677Y020285D01*
X022593Y020303D01*
X022510Y020326D01*
X022428Y020353D01*
X022348Y020384D01*
X022270Y020419D01*
X022193Y020458D01*
X022118Y020500D01*
X022046Y020546D01*
X021976Y020595D01*
X021908Y020648D01*
X021843Y020704D01*
X021781Y020764D01*
X021721Y020826D01*
X021665Y020891D01*
X021612Y020959D01*
X021563Y021029D01*
X021517Y021101D01*
X021475Y021176D01*
X021436Y021253D01*
X021401Y021331D01*
X021370Y021411D01*
X021343Y021493D01*
X021320Y021576D01*
X021302Y021660D01*
X021287Y021744D01*
X021276Y021829D01*
X021270Y021915D01*
X021268Y022001D01*
X023018Y021751D02*
X023018Y021551D01*
X023018Y021351D01*
X023018Y022351D02*
X023018Y022451D01*
X023018Y022651D01*
X023518Y023301D02*
X023818Y023301D01*
X023668Y023451D02*
X023668Y023151D01*
D15*
X020018Y017796D03*
X020018Y014956D03*
X021018Y013796D03*
X021018Y010956D03*
X016018Y010831D03*
X016018Y013671D03*
X016268Y020456D03*
X014518Y020456D03*
X013268Y020206D03*
X013268Y023046D03*
X014518Y023296D03*
X016268Y023296D03*
D16*
X015862Y022837D02*
X017967Y023910D01*
X017833Y024173D01*
X017829Y024185D02*
X017949Y024556D01*
X017962Y024570D02*
X020154Y025687D01*
X020856Y026044D01*
X021749Y024290D01*
X021048Y023933D01*
X018855Y022816D01*
X018834Y022819D02*
X018463Y022940D01*
X018458Y022945D02*
X018324Y023208D01*
X016220Y022136D01*
X015862Y022837D01*
X016081Y021984D02*
X016156Y021984D01*
X016231Y021909D01*
X016231Y021759D01*
X016156Y021684D01*
X016081Y021684D01*
X016006Y021759D01*
X016006Y021909D01*
X016081Y021984D01*
X016231Y021909D02*
X016306Y021984D01*
X016381Y021984D01*
X016456Y021909D01*
X016456Y021759D01*
X016381Y021684D01*
X016306Y021684D01*
X016231Y021759D01*
X016456Y021524D02*
X016456Y021223D01*
X016456Y021374D02*
X016006Y021374D01*
X016156Y021223D01*
X016081Y021063D02*
X016231Y021063D01*
X016306Y020988D01*
X016306Y020763D01*
X016456Y020763D02*
X016006Y020763D01*
X016006Y020988D01*
X016081Y021063D01*
X016306Y020913D02*
X016456Y021063D01*
X017118Y021426D02*
X017418Y021426D01*
X017268Y021276D02*
X017268Y021576D01*
X017043Y022326D02*
X017043Y022476D01*
X017043Y022401D02*
X017493Y022401D01*
X017493Y022326D02*
X017493Y022476D01*
X017418Y023326D02*
X017118Y023326D01*
X017043Y023401D01*
X017043Y023551D01*
X017118Y023626D01*
X017418Y023626D01*
X017493Y023551D01*
X017493Y023401D01*
X017418Y023326D01*
X017967Y023910D02*
X018324Y023208D01*
X016668Y024600D02*
X014306Y024600D01*
X014306Y024305D01*
X014304Y024292D02*
X014028Y024016D01*
X014011Y024009D02*
X011550Y024009D01*
X010763Y024009D01*
X010763Y025978D01*
X011550Y025978D01*
X014011Y025978D01*
X014028Y025965D02*
X014304Y025690D01*
X014306Y025683D02*
X014306Y025387D01*
X016668Y025387D01*
X016668Y024600D01*
X014306Y024600D02*
X014306Y025387D01*
X011529Y022388D02*
X011379Y022313D01*
X011229Y022163D01*
X011454Y022163D01*
X011529Y022088D01*
X011529Y022013D01*
X011454Y021938D01*
X011304Y021938D01*
X011229Y022013D01*
X011229Y022163D01*
X011069Y022013D02*
X010994Y021938D01*
X010844Y021938D01*
X010768Y022013D01*
X010768Y022313D01*
X010844Y022388D01*
X010994Y022388D01*
X011069Y022313D01*
X013143Y021990D02*
X013368Y021765D01*
X013368Y022065D01*
X013593Y021990D02*
X013143Y021990D01*
X013143Y021455D02*
X013593Y021455D01*
X013593Y021305D02*
X013593Y021605D01*
X013293Y021305D02*
X013143Y021455D01*
X013218Y021145D02*
X013143Y021070D01*
X013143Y020844D01*
X013593Y020844D01*
X013443Y020844D02*
X013443Y021070D01*
X013368Y021145D01*
X013218Y021145D01*
X013443Y020995D02*
X013593Y021145D01*
X014256Y021374D02*
X014706Y021374D01*
X014706Y021524D02*
X014706Y021223D01*
X014706Y021063D02*
X014706Y020763D01*
X014256Y020763D01*
X014406Y021223D02*
X014256Y021374D01*
X012886Y019478D02*
X010425Y019478D01*
X009638Y019478D01*
X009638Y017509D01*
X010425Y017509D01*
X012886Y017509D01*
X012903Y017516D02*
X013179Y017792D01*
X013181Y017805D02*
X013181Y018100D01*
X015543Y018100D01*
X015543Y018887D01*
X013181Y018887D01*
X013181Y018100D01*
X013181Y018887D02*
X013181Y019183D01*
X013179Y019190D02*
X012903Y019465D01*
X014509Y017735D02*
X014233Y017459D01*
X014231Y017446D02*
X014231Y017151D01*
X011869Y017151D01*
X011869Y016364D01*
X014231Y016364D01*
X014231Y017151D01*
X014526Y017742D02*
X016987Y017742D01*
X017774Y017742D01*
X017774Y015773D01*
X016987Y015773D01*
X014526Y015773D01*
X014509Y015786D02*
X014233Y016062D01*
X014231Y016069D02*
X014231Y016364D01*
X013180Y013951D02*
X013180Y013501D01*
X012880Y013951D01*
X012880Y013501D01*
X012725Y013501D02*
X012650Y013501D01*
X012650Y013576D01*
X012725Y013576D01*
X012725Y013501D01*
X012490Y013501D02*
X012189Y013501D01*
X012339Y013501D02*
X012339Y013951D01*
X012189Y013801D01*
X012029Y013801D02*
X012029Y013501D01*
X012029Y013726D02*
X011729Y013726D01*
X011729Y013801D02*
X011729Y013501D01*
X011569Y013576D02*
X011569Y013876D01*
X011494Y013951D01*
X011268Y013951D01*
X011268Y013501D01*
X011494Y013501D01*
X011569Y013576D01*
X011729Y013801D02*
X011879Y013951D01*
X012029Y013801D01*
X015818Y011749D02*
X016268Y011749D01*
X016268Y011899D02*
X016268Y011598D01*
X016268Y011438D02*
X016118Y011288D01*
X016118Y011363D02*
X016118Y011138D01*
X016268Y011138D02*
X015818Y011138D01*
X015818Y011363D01*
X015893Y011438D01*
X016043Y011438D01*
X016118Y011363D01*
X015968Y011598D02*
X015818Y011749D01*
X017844Y013876D02*
X017994Y013876D01*
X018069Y013951D01*
X018229Y013876D02*
X018529Y013876D01*
X018379Y013876D02*
X018379Y014326D01*
X018229Y014176D01*
X018069Y014251D02*
X017994Y014326D01*
X017844Y014326D01*
X017768Y014251D01*
X017768Y013951D01*
X017844Y013876D01*
X019831Y016367D02*
X019831Y016592D01*
X019906Y016668D01*
X020056Y016668D01*
X020131Y016592D01*
X020131Y016367D01*
X020281Y016367D02*
X019831Y016367D01*
X020131Y016517D02*
X020281Y016668D01*
X020206Y016828D02*
X020281Y016903D01*
X020281Y017053D01*
X020206Y017128D01*
X019906Y017128D01*
X019831Y017053D01*
X019831Y016903D01*
X019906Y016828D01*
X019981Y016828D01*
X020056Y016903D01*
X020056Y017128D01*
X021481Y018244D02*
X021781Y018244D01*
X021931Y018395D01*
X021781Y018545D01*
X021481Y018545D01*
X021481Y018705D02*
X021481Y018930D01*
X021556Y019005D01*
X021856Y019005D01*
X021931Y018930D01*
X021931Y018705D01*
X021481Y018705D01*
X021706Y019165D02*
X021706Y019465D01*
X021931Y019390D02*
X021481Y019390D01*
X021706Y019165D01*
X020083Y019426D02*
X020008Y019351D01*
X019858Y019351D01*
X019783Y019426D01*
X019783Y019576D02*
X019933Y019651D01*
X020008Y019651D01*
X020083Y019576D01*
X020083Y019426D01*
X019783Y019576D02*
X019783Y019801D01*
X020083Y019801D01*
X019623Y019726D02*
X019548Y019801D01*
X019398Y019801D01*
X019323Y019726D01*
X019323Y019426D01*
X019398Y019351D01*
X019548Y019351D01*
X019623Y019426D01*
X021893Y021975D02*
X022193Y021975D01*
X022268Y022050D01*
X022268Y022200D01*
X022193Y022275D01*
X022268Y022435D02*
X021968Y022735D01*
X021893Y022735D01*
X021818Y022660D01*
X021818Y022510D01*
X021893Y022435D01*
X021893Y022275D02*
X021818Y022200D01*
X021818Y022050D01*
X021893Y021975D01*
X022268Y022435D02*
X022268Y022735D01*
X024273Y020137D02*
X024423Y020137D01*
X024498Y020062D01*
X024498Y019837D01*
X024498Y019987D02*
X024648Y020137D01*
X024648Y019837D02*
X024198Y019837D01*
X024198Y020062D01*
X024273Y020137D01*
X024198Y019677D02*
X024198Y019377D01*
X024648Y019377D01*
X024648Y019677D01*
X024423Y019527D02*
X024423Y019377D01*
X024648Y019217D02*
X024198Y019217D01*
X024198Y018916D02*
X024648Y018916D01*
X024498Y019067D01*
X024648Y019217D01*
X024573Y018756D02*
X024273Y018756D01*
X024198Y018681D01*
X024198Y018531D01*
X024273Y018456D01*
X024573Y018456D01*
X024648Y018531D01*
X024648Y018681D01*
X024573Y018756D01*
X024423Y018296D02*
X024273Y018296D01*
X024198Y018221D01*
X024198Y017996D01*
X024648Y017996D01*
X024498Y017996D02*
X024498Y018221D01*
X024423Y018296D01*
X024198Y017046D02*
X024648Y017046D01*
X024648Y016746D02*
X024198Y016746D01*
X024348Y016896D01*
X024198Y017046D01*
X024198Y015256D02*
X024648Y015256D01*
X024198Y014956D01*
X024648Y014956D01*
X024573Y014796D02*
X024273Y014796D01*
X024198Y014721D01*
X024198Y014571D01*
X024273Y014496D01*
X024573Y014496D01*
X024648Y014571D01*
X024648Y014721D01*
X024573Y014796D01*
X024548Y013256D02*
X024548Y013106D01*
X024548Y013256D02*
X024698Y013256D01*
X024773Y013181D01*
X024773Y013031D01*
X024698Y012956D01*
X024398Y012956D01*
X024323Y013031D01*
X024323Y013181D01*
X024398Y013256D01*
X024323Y012796D02*
X024323Y012496D01*
X024323Y012646D02*
X024773Y012646D01*
X024698Y010881D02*
X024623Y010881D01*
X024548Y010806D01*
X024548Y010581D01*
X024698Y010581D01*
X024773Y010656D01*
X024773Y010806D01*
X024698Y010881D01*
X024398Y010731D02*
X024548Y010581D01*
X024548Y010421D02*
X024623Y010346D01*
X024623Y010121D01*
X024623Y010271D02*
X024773Y010421D01*
X024548Y010421D02*
X024398Y010421D01*
X024323Y010346D01*
X024323Y010121D01*
X024773Y010121D01*
X024398Y010731D02*
X024323Y010881D01*
X021206Y011326D02*
X020756Y011326D01*
X020756Y011551D01*
X020831Y011626D01*
X020981Y011626D01*
X021056Y011551D01*
X021056Y011326D01*
X021056Y011476D02*
X021206Y011626D01*
X021206Y011786D02*
X021206Y012086D01*
X021206Y011936D02*
X020756Y011936D01*
X020906Y011786D01*
X020906Y012246D02*
X020756Y012397D01*
X021206Y012397D01*
X021206Y012547D02*
X021206Y012246D01*
X019438Y010260D02*
X019412Y010190D01*
X019027Y010010D01*
X019002Y009940D01*
X018851Y009994D02*
X018761Y010187D01*
X018832Y010161D02*
X018620Y010238D01*
X018569Y010097D02*
X018723Y010520D01*
X018935Y010443D01*
X018980Y010347D01*
X018928Y010206D01*
X018832Y010161D01*
X019156Y010363D02*
X019438Y010260D01*
X014146Y007426D02*
X014146Y007320D01*
X014093Y007267D01*
X013987Y007267D01*
X013987Y007161D01*
X013934Y007108D01*
X013828Y007108D01*
X013722Y007214D01*
X013722Y007320D01*
X013608Y007434D02*
X013502Y007434D01*
X013396Y007540D01*
X013396Y007646D01*
X013608Y007858D01*
X013715Y007858D01*
X013821Y007752D01*
X013821Y007646D01*
X013934Y007533D02*
X014040Y007533D01*
X014146Y007426D01*
X013987Y007267D02*
X013934Y007320D01*
D17*
X014568Y005513D02*
X014818Y005513D01*
X015018Y005363D02*
X020868Y005363D01*
X014368Y005363D02*
X014168Y005363D01*
X007693Y008026D02*
X007693Y013876D01*
X007843Y014076D02*
X007843Y014326D01*
X007693Y014526D02*
X007693Y014726D01*
X011168Y022701D02*
X011168Y023001D01*
X011168Y023301D01*
X011368Y023301D02*
X011368Y023001D01*
X011368Y022701D01*
X018543Y013551D02*
X018543Y013251D01*
X018543Y012951D01*
X018743Y012951D02*
X018743Y013251D01*
X018743Y013551D01*
D18*
X022518Y013501D03*
X022518Y014501D03*
X022518Y015501D03*
X022518Y016501D03*
X022518Y017501D03*
X022518Y018501D03*
X022518Y019501D03*
X023518Y019501D03*
X023518Y018501D03*
X023518Y017501D03*
X023518Y016501D03*
X023518Y015501D03*
X023518Y014501D03*
X023518Y013501D03*
X023518Y012501D03*
X022518Y012501D03*
X022518Y011501D03*
X022518Y010501D03*
X022518Y009501D03*
X023518Y009501D03*
X023518Y010501D03*
X023518Y011501D03*
D19*
G36*
X021625Y009078D02*
X021513Y009119D01*
X021595Y009344D01*
X021707Y009303D01*
X021625Y009078D01*
G37*
G36*
X018317Y010282D02*
X018205Y010323D01*
X018287Y010548D01*
X018399Y010507D01*
X018317Y010282D01*
G37*
D20*
G36*
X011753Y007310D02*
X011611Y007452D01*
X012317Y008158D01*
X012459Y008016D01*
X011753Y007310D01*
G37*
D21*
X016987Y015380D02*
X016987Y015773D01*
X016987Y017742D01*
X016987Y018057D01*
X021227Y023582D02*
X021048Y023933D01*
X020154Y025687D01*
X020011Y025968D01*
X011550Y025978D02*
X011550Y024009D01*
X011550Y023694D01*
X011550Y025978D02*
X011550Y026372D01*
X010425Y019872D02*
X010425Y019478D01*
X010425Y017509D01*
X010425Y017194D01*
D22*
X014518Y020701D02*
X017768Y020701D01*
X017768Y024301D01*
X014518Y024301D01*
X014518Y020701D01*
D23*
X014398Y020771D02*
X014165Y020771D01*
X014048Y020887D01*
X014165Y021004D01*
X014398Y021004D01*
X014398Y021130D02*
X014398Y021363D01*
X014398Y021246D02*
X014048Y021246D01*
X014165Y021130D01*
X014223Y021004D02*
X014223Y020771D01*
X014223Y021489D02*
X014048Y021489D01*
X014048Y021722D01*
X014165Y021664D02*
X014223Y021722D01*
X014340Y021722D01*
X014398Y021664D01*
X014398Y021547D01*
X014340Y021489D01*
X014223Y021489D02*
X014165Y021606D01*
X014165Y021664D01*
X014340Y021906D02*
X014398Y021906D01*
X014398Y021965D01*
X014340Y021965D01*
X014340Y021906D01*
X014398Y021965D02*
X014515Y021848D01*
X014398Y022087D02*
X014165Y022321D01*
X014107Y022321D01*
X014048Y022262D01*
X014048Y022146D01*
X014107Y022087D01*
X014398Y022087D02*
X014398Y022321D01*
X014398Y022446D02*
X014165Y022446D01*
X014165Y022505D01*
X014223Y022563D01*
X014165Y022622D01*
X014223Y022680D01*
X014398Y022680D01*
X014398Y022563D02*
X014223Y022563D01*
X014165Y022806D02*
X014165Y022864D01*
X014223Y022922D01*
X014165Y022981D01*
X014223Y023039D01*
X014398Y023039D01*
X014398Y022922D02*
X014223Y022922D01*
X014165Y022806D02*
X014398Y022806D01*
D24*
X018693Y022501D03*
X018693Y023501D03*
X018693Y021501D03*
D25*
X018193Y021501D03*
X018193Y022501D03*
X018193Y023501D03*
D26*
X020115Y023769D02*
X020326Y023979D01*
X020746Y023979D01*
X020746Y024204D02*
X020326Y024624D01*
X020221Y024624D01*
X020115Y024519D01*
X020115Y024309D01*
X020221Y024204D01*
X020431Y023979D02*
X020431Y023559D01*
X020326Y023559D02*
X020115Y023769D01*
X020326Y023559D02*
X020746Y023559D01*
X020641Y023335D02*
X020221Y023335D01*
X020115Y023230D01*
X020115Y022914D01*
X020746Y022914D01*
X020746Y023230D01*
X020641Y023335D01*
X020746Y024204D02*
X020746Y024624D01*
X008604Y010165D02*
X008499Y010165D01*
X008079Y010586D01*
X007974Y010586D01*
X007974Y010165D01*
X008079Y009941D02*
X007974Y009836D01*
X007974Y009626D01*
X008079Y009521D01*
X008499Y009521D01*
X008604Y009626D01*
X008604Y009836D01*
X008499Y009941D01*
X018744Y006175D02*
X018744Y005755D01*
X018849Y005650D01*
X019059Y005650D01*
X019164Y005755D01*
X019389Y005755D02*
X019494Y005650D01*
X019704Y005650D01*
X019809Y005755D01*
X019809Y005860D01*
X019704Y005965D01*
X019494Y005965D01*
X019389Y006070D01*
X019389Y006175D01*
X019494Y006280D01*
X019704Y006280D01*
X019809Y006175D01*
X019809Y006070D01*
X019704Y005965D01*
X019494Y005965D02*
X019389Y005860D01*
X019389Y005755D01*
X019164Y006175D02*
X019059Y006280D01*
X018849Y006280D01*
X018744Y006175D01*
D27*
X023018Y021776D03*
D28*
X021018Y020751D02*
X021018Y020401D01*
X021018Y017101D02*
X021018Y016751D01*
D29*
X021018Y019401D03*
D30*
X021018Y020026D03*
X021018Y017476D03*
D31*
X019638Y020076D02*
X019638Y020676D01*
X019388Y020676D02*
X019388Y020076D01*
X010093Y014726D02*
X010093Y014526D01*
X010043Y014476D02*
X010043Y014776D01*
X009943Y014326D02*
X009943Y014076D01*
X009893Y014076D02*
X009893Y014326D01*
X010043Y013926D02*
X010043Y007976D01*
X010093Y008026D02*
X010093Y013876D01*
X014168Y007763D02*
X014368Y007763D01*
X014418Y007713D02*
X014118Y007713D01*
X014568Y007613D02*
X014818Y007613D01*
X014818Y007563D02*
X014568Y007563D01*
X014968Y007713D02*
X020918Y007713D01*
X020868Y007763D02*
X015018Y007763D01*
D32*
X013668Y006563D02*
X013018Y006563D01*
X008893Y006876D02*
X008893Y007526D01*
X008893Y015226D02*
X008893Y015876D01*
X021368Y006563D02*
X022018Y006563D01*
D33*
X008893Y012876D03*
D34*
X008893Y015051D03*
X008893Y007701D03*
D35*
X016018Y006563D03*
D36*
X013843Y006563D03*
X021193Y006563D03*
M02*
