G75*
G70*
%OFA0B0*%
%FSLAX24Y24*%
%IPPOS*%
%LPD*%
%AMOC8*
5,1,8,0,0,1.08239X$1,22.5*
%
%ADD10OC8,0.0832*%
%ADD11OC8,0.0912*%
%ADD12C,0.0166*%
%ADD13C,0.0832*%
%ADD14C,0.0984*%
%ADD15C,0.0827*%
%ADD16C,0.0912*%
%ADD17C,0.1000*%
%ADD18OC8,0.1000*%
%ADD19C,0.1240*%
%ADD20OC8,0.1240*%
%ADD21C,0.0760*%
%ADD22C,0.0320*%
%ADD23C,0.1969*%
%ADD24C,0.0240*%
%ADD25C,0.0160*%
D10*
X016018Y010251D03*
X018143Y013251D03*
X019143Y013251D03*
X020018Y014376D03*
X021018Y014376D03*
X021018Y016751D03*
X020018Y018376D03*
X020018Y020376D03*
X019018Y020376D03*
X021018Y020751D03*
X016268Y019876D03*
X014518Y019876D03*
X013268Y019626D03*
X011768Y023001D03*
X010768Y023001D03*
X013268Y023626D03*
X014518Y023876D03*
X016268Y023876D03*
X016018Y014251D03*
X021018Y010376D03*
D11*
X022518Y010501D03*
X022518Y011501D03*
X022518Y012501D03*
X022518Y013501D03*
X022518Y014501D03*
X022518Y015501D03*
X022518Y016501D03*
X022518Y017501D03*
X022518Y018501D03*
X022518Y019501D03*
X023518Y019501D03*
X023518Y018501D03*
X023518Y017501D03*
X023518Y016501D03*
X023518Y015501D03*
X023518Y014501D03*
X023518Y013501D03*
X023518Y012501D03*
X023518Y011501D03*
X023518Y010501D03*
X023518Y009501D03*
X022518Y009501D03*
D12*
X022018Y008970D02*
X022101Y008887D01*
X021849Y008770D01*
X021593Y008863D01*
X021476Y009115D01*
X021569Y009371D01*
X021821Y009488D01*
X022077Y009395D01*
X022194Y009143D01*
X022101Y008887D01*
X022001Y008978D01*
X021844Y008905D01*
X021684Y008963D01*
X021611Y009120D01*
X021669Y009280D01*
X021826Y009353D01*
X021986Y009295D01*
X022059Y009138D01*
X022001Y008978D01*
X021901Y009069D01*
X021838Y009040D01*
X021775Y009063D01*
X021746Y009126D01*
X021769Y009189D01*
X021832Y009218D01*
X021895Y009195D01*
X021924Y009132D01*
X021901Y009069D01*
X018260Y010338D02*
X018343Y010255D01*
X018091Y010138D01*
X017835Y010231D01*
X017718Y010483D01*
X017811Y010739D01*
X018063Y010856D01*
X018319Y010763D01*
X018436Y010511D01*
X018343Y010255D01*
X018243Y010346D01*
X018086Y010273D01*
X017926Y010331D01*
X017853Y010488D01*
X017911Y010648D01*
X018068Y010721D01*
X018228Y010663D01*
X018301Y010506D01*
X018243Y010346D01*
X018143Y010437D01*
X018080Y010408D01*
X018017Y010431D01*
X017988Y010494D01*
X018011Y010557D01*
X018074Y010586D01*
X018137Y010563D01*
X018166Y010500D01*
X018143Y010437D01*
X012302Y007273D02*
X012385Y007190D01*
X012109Y007190D01*
X011915Y007384D01*
X011915Y007660D01*
X012109Y007854D01*
X012385Y007854D01*
X012579Y007660D01*
X012579Y007384D01*
X012385Y007190D01*
X012333Y007315D01*
X012161Y007315D01*
X012040Y007436D01*
X012040Y007608D01*
X012161Y007729D01*
X012333Y007729D01*
X012454Y007608D01*
X012454Y007436D01*
X012333Y007315D01*
X012281Y007440D01*
X012213Y007440D01*
X012165Y007488D01*
X012165Y007556D01*
X012213Y007604D01*
X012281Y007604D01*
X012329Y007556D01*
X012329Y007488D01*
X012281Y007440D01*
D13*
X011540Y008229D03*
X010893Y009876D03*
X010893Y010876D03*
X010893Y011876D03*
X010893Y012876D03*
X013893Y012876D03*
X013893Y011876D03*
X013893Y010876D03*
X013893Y009876D03*
D14*
X018955Y016751D03*
X022358Y025697D03*
X009581Y025001D03*
X008456Y018501D03*
D15*
X010938Y016751D03*
X015214Y022057D03*
X017599Y025001D03*
X016474Y018501D03*
D16*
X018563Y021501D02*
X019474Y021501D01*
X019474Y022501D02*
X018563Y022501D01*
X018563Y023501D02*
X019474Y023501D01*
D17*
X023018Y023001D03*
D18*
X023018Y021001D03*
D19*
X013018Y006563D03*
X008893Y015876D03*
D20*
X008893Y006876D03*
X022018Y006563D03*
D21*
X021643Y011501D03*
X015143Y014251D03*
X012768Y014876D03*
X010143Y014876D03*
X014893Y025126D03*
X020143Y021501D03*
X021893Y021501D03*
D22*
X020143Y021501D01*
X015143Y014251D02*
X016268Y012126D01*
X020018Y012126D01*
X021143Y011501D01*
X021643Y011501D01*
D23*
X020018Y007501D03*
X023893Y006313D03*
X010518Y005938D03*
X008518Y020938D03*
X023893Y024813D03*
D24*
X014893Y025126D02*
X014268Y025126D01*
X013893Y024751D01*
X013893Y023251D01*
X012518Y022126D01*
X012518Y018876D01*
X013643Y018376D01*
X013643Y015751D01*
X015143Y014251D01*
D25*
X012768Y014876D02*
X010143Y014876D01*
M02*
